<?xml version="1.0" encoding="utf-8"?>

<!DOCTYPE svg PUBLIC "-//W3C//DTD SVG 1.1//EN" "http://www.w3.org/Graphics/SVG/1.1/DTD/svg11.dtd">
<svg version="1.1" id="Layer_1" xmlns="http://www.w3.org/2000/svg" xmlns:xlink="http://www.w3.org/1999/xlink" x="0px" y="0px"
	 viewBox="0 0 2694.226 790.811" style="enable-background:new 0 0 2694.226 790.811;" xml:space="preserve">
<g>
	<g>
		<path d="M2522.683,390.499c-0.017,0.043-0.028,0.089-0.03,0.14C2522.661,390.592,2522.675,390.546,2522.683,390.499z"/>
		<path d="M1494.159,305.543c0.142-0.049,0.286-0.108,0.435-0.188C1494.442,305.416,1494.306,305.48,1494.159,305.543z"/>
		<path d="M2535.499,299.795c-4.144-8.367-9.443-18.193-16.224-24.368c-1.089-1.701-7.718-9.098-10.618-10.515
			c-0.305,1.201-0.513,2.41-0.812,3.605c-0.532-0.026-1.604-0.084-2.143-0.11c0.013,1.299,0.052,2.604,0.123,3.91
			c-1.195,0.026-2.364,0.058-3.5,0.117c2.267,2.306,4.325,5.046,7.397,6.358c-0.935-0.143-1.871-0.273-2.741-0.396
			c-0.416-0.656-0.812-1.305-1.169-1.948c-1.702-0.903-3.098-2.234-4.118-3.838c-1.695-1.208-3.26-2.656-5.26-3.286
			c-1.338-0.903-2.637-2.91-4.364-1.669c-7.762,4.126-6.572,2.972-11.155,11.541c-16.259,30.399-9.375,33.735-15.776,34.953
			c-6.851,1.303-6.834,1.913-7.413-2.11c-1.753-1.825-4.364-1.24-6.592-1.455c-3.169-1.39-7.047-0.877-9.274,1.89
			c-1.357,0.37-2.708,0.734-4.04,1.046c-0.338,0.513-0.649,1.033-0.929,1.559c0.487,0.656,0.98,1.357,1.624,1.955
			c1.176,0.227,2.403,0.188,3.656,0.253v1.15c-1.117,0.104-2.156,0.227-3.208,0.344c0.084,0.117,0.247,0.351,0.331,0.468
			c-1.039,2.059,1.585,2.643,2.884,3.397c0.032,2.377-0.507,4.676-1.487,6.826c-0.624,0.331-1.215,0.662-1.76,1
			c-1.325-0.214-2.65-0.377-3.936-0.487c-0.279-0.143-0.831-0.416-1.111-0.552c0.026-0.396,0.084-1.189,0.11-1.591
			c0.214-0.266,0.649-0.805,0.864-1.078c0.468-1.734,1.215-3.384,1.715-5.118c-1.972-1.813-26.85-16.744-29.264-17.906
			c-10.109-4.868-21.43-7.789-31.323-13.193c-2.215-1.209-2.65-2.884-4.557-0.706c-12.831,14.654-15.841,40.94-14.841,40.937
			c-0.762,0.002-1.524,0.004-2.287,0.007c-0.242-26.506,6.37-27.664,7.873-32.23c1.616-4.908-4.684-3.711-5.817-3.957
			c-1.869-0.407-3.532-1.533-5.248-2.326c1.749,0.808,0.995-1.968,4.995-14.342c-12.981-4.789-10.719-3.127-15.614,3.846
			c-7.963,11.344-11.729,35.407-11.943,49.916c-0.487,32.83,13.317,59.669,14.034,60.677c2.169,3.047,9.466,8.89,1.081,15.34
			c-5.616,4.32-9.642,0.238-8.199-5.118c1.343-4.984,5.395-7.679-0.101-17.697c-5.224-9.522-8.346-22.945-9.768-33.105
			c-7.249-51.787,15.927-67.658,0.822-68.857c-0.244,2.358-8.13,7.824-0.554-9.277c4.786-10.804,5.37-6.357,3.243-11.929
			c-9.638-25.23-56.923,70.591-6.025,151.299c5.75,9.119,2.268,8.266-2.927,12.541c-5.596,4.605-6.472,0.884-9.828-3.981
			c-8.521-12.355-10.329-12.529-16.367-31.891c-10.506-33.695-14.193-60.807-5.352-96.69c0.187-0.757,5.857-23.994,6.184-24.702
			c13.637-29.513,9.257-14.642-4.802-29.069c-10.865-11.148-30.404,54.118-27.512,106.051c2.489,44.699,26.936,82.777,32.629,93.111
			c4.729,8.585-0.103,6.786-34.256,33.106c-37.978,29.268,36.133,19.523-644.71-17.486l-20.175-1.097
			c-4.993-0.271-12.314-2.033-17.468-1.225c0.336-0.067,0.671-0.137,1.005-0.212c-0.869,0.008-2.042,0.104-2.985-0.059
			c-4.247-0.734-8.566-0.351-12.846-0.448c-0.611-0.442-1.182-0.903-1.715-1.377c0.289-1.507,0.436-1.344,0.935-3.481
			c0.364-0.649,0.753-1.299,1.156-1.935c0.033-0.318,0.098-0.955,0.13-1.273c7.612-14.776,11.137-66.574,10.969-69.596
			c-1.383-0.468-2.721-1-4.033-1.578c0.922-1.078,1.831-2.182,2.604-3.384c0.279-1.63,0.727-3.221,1.305-4.767
			c0.24-6.501,0.939-30.504-4.663-33.915c-4.449-0.37-8.962,0.221-13.359-0.662c-0.039-0.403-0.11-1.221-0.149-1.63
			c-0.279-0.708-0.52-1.422-0.734-2.13c-2.929-4.118-1.481-2.785-6.495-3.708c-2.837-0.385-40.687-5.355-43.241-6.917
			c-0.611,0.11-1.195,0.234-1.754,0.364c-2.942-0.37-5.865-0.714-8.774-1.169c0.13-0.182,0.403-0.539,0.533-0.721
			c-1.202-0.416-2.37-0.838-3.514-1.305c0.546-1.922,0.656-3.91,0.474-5.891c0.258-0.118,0.538-0.234,0.812-0.351
			c-3.135,1.094-4.596-4.879-7.833-2.766c-1.344,0.104-2.676,0.175-3.988,0.266c-1.026,2.663-3.91,4.39-3.838,7.462
			c-3.027,0.508-2.933,0.63-30.2-3.286c0.931-2.975,36.545-47.119,35.811-46.118c6.649-9.065,6.653-6.192,4.702-9.891
			c-2.587,1.961-42.611,51.489-45.15,54.827c-66.587-11.619-228.999-30.258-228.999-30.258c-3.293-0.637-6.378,1.201-9.638,1.182
			c-2.388-3.308,0.095-3.124-4.884-6.111c-1.195-1.507-2.845-3.059-4.891-2.968c-2.988-0.045-5.904-0.812-8.885-0.766
			c0.883-2.728,1.52-5.52,1.929-8.352c2.228-0.058,5.111,0.487,6.702-1.507c1.039-3.728,1.286-7.761-0.422-11.34
			c0.071-0.916,0.162-1.825,0.273-2.728c-0.39-0.559-0.753-1.111-1.104-1.663c1.401-6.173,1.548-26.592,2-31.473
			c2.501-23.402-2.948-38.19,9.878-34.577c-0.013-1.176-0.013-2.345-0.006-3.52c-0.325-0.247-0.968-0.74-1.292-0.987
			c0.143-3.436-0.338-6.943,0.688-10.287c4.189,0.007,8.456,0.318,12.541-0.903c1.052-0.312,2.15-0.162,3.222,0.065
			c0.422-0.331,0.864-0.656,1.318-0.987c36.408-0.598,45.78-1.487,45.78-1.487c2.046,1.026,4.592,0.546,6.352,2.228
			c-0.766-0.247-1.461-0.734-2.247-0.747c-0.662,1.111,1.02,1.63,1.559,2.377c0.201,0.961,0.377,1.922,0.584,2.89
			c9.553,1.763,15.449-5.903,19.653-6.17c3.163-1.754,5.384-4.702,8.307-6.787c1-0.714,34.833-2.031,51.209-1.75l-17.806-0.566
			c547.007-19.351,769.159,48.593,934.319-44.393c-990.451,24.491-694.569,15.913-829.178,24.577
			c-69.923,4.5-140.643,2.806-141.643,2.179c-1.987-1.244-1.124-2.912-0.921-5.493c-4.351-0.682-8.722-1.734-13.132-0.981
			c0.208-1.039,0.429-2.078,0.604-3.124c-2.098-0.344-3.949,0.734-5.8,1.481c-9.569,3.244-5.965,5.602-41.663,5.079
			c-6.722-0.078-13.431,1.247-20.14,0.526c-4.66-1.548-7.167-0.622-8.17-0.364c1.533-4.475,1.117-9.222-0.201-13.691
			c-1.137-0.032-2.254-0.065-3.351-0.091c0.065-1.819,0.162-3.637,0.253-5.455c0.578-1.195,0.955-2.474,1.24-3.773
			c-0.37-0.234-1.111-0.688-1.481-0.916c0.323-2.951,2.667-6.038,3.942-7.67c0.046-1.994,0.026-3.988,0.046-5.975
			c0.403-0.046,1.208-0.136,1.617-0.182c3.306-2.481,6.495-5.189,10.352-6.832c3.124-2.487,6.43-4.767,9.885-6.774
			c0.097-0.312,0.286-0.935,0.377-1.247c0.636-0.065,1.292-0.123,1.968-0.188c3.951-3.397,9.673-6.909,10.067-7.261
			c1.253-0.325,2.351-0.987,3.111-2.065c4.111-1.877,9.054-1.935,12.476-5.176c1.378-2.472,0.59-1.256,1.728-3.897
			c-4.832-5.349-32.706-5.978-39.922-5.956c-1.981-0.136-3.241,1.617-4.546,2.793c-0.396-0.032-1.189-0.091-1.585-0.117
			c0.045,0.448,0.136,1.351,0.182,1.799c-0.266,0.514-17.345,26.208-17.425,26.284c-0.046,0.091-0.136,0.273-0.182,0.364
			c-1.747,0.961-3.091,2.448-4.221,4.053c-19.527,5.797-6.828,3.026-20.094,8.975c-3.169,1.643-6.066,3.806-8.488,6.417
			c-5.421,5.817-7.945,4.201-9.671,10.891c-1.974,0.033-3.968-0.279-5.897,0.091c-0.734,0.604-1.357,1.312-1.994,2
			c0.26,4.066-1.059,8.417,1.059,12.184c-11.731-0.517-14.14,1.098-21.393-3.306c-38.11-5.045-31.132-0.704-38.389-7.748
			c-7.131-1.312-14.632-1.221-21.627,0.76c-5.454,3.747-4.896,3.137-9.768,3.514c0.032,0.214,0.11,0.649,0.149,0.864
			c-38.954,2.25-141.236-13.851-204.551-13.851c-58.063-2.674-110.78-6.813-166.085-11.423
			C59.527,43.47,109.863,40.716,83.017,70.234C76.483,77.419,65.421,94.092,67.415,96.7c5.41,7.075,126.137,5.334,558.653,33.576
			c654.659,42.745,309.995,18.141,435.773,29.977c3.104,2.078,6.111,4.702,9.982,5.183c0.162-0.896,0.409-1.78,0.623-2.669
			c6.954-1.711,11.192,0.79,13.95-3.682c2.637-1.137,5.462-0.753,8.203-0.26c0.468-0.637,0.942-1.273,1.442-1.909
			c21.86-0.911,20.981,2.144,36.824,1.858c6.957,3.644,6.364,4.099,7.813,3.916c4.204-2.023-1.156-1.883,9.852-3.585
			c0.662-0.078,2.286-0.065,2.065,0.968c-0.714,4.598,0.455,9.183-0.006,13.801c1.007,0.812,0.987,1.896,0.474,2.994
			c0.312,2.903-0.708,5.566-1.442,8.294c1.435,1.182,3.325,1.474,5.046,2.078c1.046,0.039,2.085,0.065,3.169,0.104
			c-0.117,3.345,0.572,6.696-0.046,10.028c-0.344,1.422,0.046,2.845,0.364,4.241c1.879,6.136-0.215,29.147,1.825,40.234
			c-0.598,0.669-1.188,1.344-1.76,2.013c-0.643,3.579-1.299,7.345-0.058,10.872c2.15,0.675,4.332,1.26,6.586,1.526
			c-0.234,0.24-0.688,0.727-0.916,0.968c0.799,0.987,1.682,1.929,2.754,2.663c-0.058,2.617-0.156,5.248,0.253,7.852
			c-3.851,1.189-8.047,0.922-11.742,2.572c-0.669,0.045-1.318,0.097-1.948,0.156c-1.076,1.374-2.113,2.8-3.564,3.8
			c-2.586,1.783-1.466,5.027-4.327,6.187c0,0-38.111,0.805-62.146,9.846c-18.552,6.979-29.842,19.707-34.768,24.802
			c-5.474,5.664-5.5,10.151-16.36,8.076c-0.55-0.105-7.636-1.98-7.551-1.501c-0.523-2.929-8.089-29.592-10.112-37.22
			c-1.09-2.838,15.821-39.357,16.405-40.357c0.382-2.04,4.671-11.326,5.196-12.327c0.065-0.312,0.188-0.922,0.253-1.227
			c1.312-2.545,8.404-19.127,9.787-21.9c-2.963-2.568-44.788-6.997-48.755-7.43C968.244,230.57,885.714,308.18,885.714,308.18
			c-1-0.096-48.009-4.418-66.751-3.28c-1.244-0.874-18.514-10.38-19.003-10.625c-10.96-4.796-58.776-53.425-65.277-53.97
			c-0.136,0.416-0.403,1.26-0.539,1.676c53.726,70.527,34.828,49.945,58.023,66.134c1.072-0.007,2.143-0.007,3.241,0
			c0,0,0.039,0.492,0.039,0.494c-0.729-9.24-79.677,70.256-112.921,98.101c-43.895,6.504-90.179,25.674-100.809,31.245
			c-37.858,0.681-47.606-2.616-58.577,0.731c0.108,4.583,31.978,4.649,36.446,4.539c1.865-0.046,10.26,1.242,11.428,0.276
			c-4.208,3.481-9.086,6.144-12.827,10.19c-1.546,1.331-2.747,3-4.273,4.345c-8.688,0.904-40.583-4.529-46.07,0.299
			c0.604,0.364,0.764,0.795,0.7,1.51c11.509,1.339,23.018,2.678,34.528,4.016c-1.249,0.601-13.669,5.02-15.929,5.404
			c-22.251,16.163-20.503,36.588-6.257,51.152c5.838,5.968,19.009,7.752,26.844,7.804c20.906,0.138,13.634-5.543,45.735,2.133
			c1.005,0.612,44.712,38.54,92.814,40.188c0.422,0.214,1.279,0.643,1.702,0.857c-0.084,1.87-0.11,3.747-0.039,5.624
			c1.273-0.019,2.559,0.026,3.845-0.097c1.286-1.344,0.546-3.494,0.844-5.176c2.604-0.266,5.059,0.526,7.371,1.669
			c2.754,0.26,5.592,0.325,8.008,1.89c0.279,0.435,0.565,0.883,0.864,1.338c-2.699,2.799-45.749,36.931-47.086,38.636
			c-2.274,8.03,36.949-18.535,49.151-22.218c0.974,4.208,1.111,8.566,2.085,12.775c3.819,1.5,7.969,2.052,11.982,2.884
			c0.364-0.162,1.091-0.474,1.448-0.636c-2.201-16.799-2.973-18.309-0.805-20.568c3.835-0.895,4.367-1.256,8.813-2.877
			c0.513,1.844,0.987,3.76,2.189,5.319c3.92,0.31,3.876,1.038,7.021,1.351c1.935-2.182,1.169-5.546,2.936-7.813
			c32.152,5.912,29.556,6.659,33.421,8.703c-0.214,0.688-0.422,1.377-0.597,2.085c-2.458,2.323-3.911,3.89-2.96,9.071
			c1.554,8.463,48.74,38.938,85.051,47.335c-1.643,9.748-3.579,19.464-4.793,29.291c-2.319,2.897-3.449,6.566-3.15,10.274
			c-14.46,9.484-84.767-15.569-87.514-22.4c-1.953-2.809,10.516-14.504,2.327-15.624c-44.227-6.052-41.437-3.581-44.074-0.223
			c-0.335,10.463,2.345,10.2,15.443,19.043c54.207,36.596,85.14,37.064,148.978,41.852c378.031,28.927,338.323,29.84,379.162,23.788
			c2.725-4.163,4.031-8.344,0.991-12.814c-3.743-5.506-2.356-1.876-25.738-0.677c-14.283,0.733-28.055-1.811-29.064-2.4
			c-3.196-1.864,0.455-26.2,4.725-38.092c9.567-0.073,88.626,10.316,115.985,4.844c9.652-1.931,8.15-11.794,4.677-15.356
			c-3.903-4.004-5.994-0.122-32.647-0.229c-2.393-0.01-28.121-0.45-27.902-2.8c0.399-4.276-4.896-9.443-4.429-19.341
			c5.073-0.189,10.171,0.307,15.26,0.15c10.08-0.311,20.04-1.963,30.089-2.554c98.079-5.771,86.384-11.793,92.406-6.462
			c0.384,3.047-2.668,5.112-2.227,8.125c-0.084,2.845,2.507,5.332,5.339,5.228c3.708,0.526,6.943-3.994,5.202-7.3
			c-1.02-2.312-0.981-5.053,0.695-7.04c-0.448-0.396-0.877-0.779-1.286-1.15c0.026-0.513,0.071-1.539,0.097-2.052
			c2.993-0.203,10.122-1.637,11.268-1.955c2.87,4.015,2.783,4.135,7.41,4.663c0.312-0.26,0.929-0.773,1.24-1.026
			c1.383,3.423,4.828,16.724,5.43,19.692c-0.253-0.078-0.76-0.227-1.007-0.305c-3.99,3.105-11.036-0.751-10.164,5.949
			c0.688,0.585,1.494,1.052,2.286,1.552c17.471-2.856,45.864-5.955,49.755-7.664c-0.299-1.292,0.442-3.163-1-3.884
			c-3.514-1.396-7.183,0.435-10.781,0.455c0.04-1.487-1.538-25.631-1.858-26.965c0.364-0.175,1.091-0.539,1.455-0.714
			c2.704-0.418,28.124-5.059,73.025-17.34c3.934-1.447,312.671-11.778,311.669-11.704c372.297-27.551,257.997-20.191,289.768-18.016
			c12.609,0.464,11.572,2.76,16.659-3.591c5.86-1.198,173.648-13.386,175.405-12.963c3.054,0.735,64.531,14.56,67.628,14.931
			c10.256,1.058,32.343,7.552,41.033,8.787c3.975,0.526,7.793-0.922,11.502-2.176c1.273-0.981,2.643-1.844,4.092-2.598
			c-0.02-0.831,0-1.65,0.059-2.468c-4.54-2.27-4.007,0.034-7.424,1.344c-3.377,1.598-7.28,1.831-10.865,0.929
			c-50.736-11.971-87.907-21.138-95.49-22.543c1.254-2.358,4.027-2.832,6.151-4.118c12.323-6.792,32.421-24.393,50.391-52.328
			c86.254-114.317,84.653-107.407,78.806-115.038c-10.594-13.825-12.803-19.612-12.803-19.612
			c-4.276-2.505-8.486-10.198-5.389-12.075c1.046-0.634,9.495-4.378,10.309-5.504c0.634,0.551,1.521,2.891,2.237,3.07
			c-0.484-0.129,0.278,2.699,0.453,3.431c2.881,3.957-4.109,9.726,1.589,15.174c0.704,0.673,1.727,0.973,2.515,1.52
			c0.932,0.646,1.065,1.254,1.771,2.011c1.979,2.122,7.628,2.498,10.264,3.338c22.066,7.029,24.394,10.279,27.261,4.97
			c0.357-0.661,0.586-1.411,1.105-1.954c0.52-0.543,1.491-0.771,1.996-0.215c-2.684,2.142-4.543,5.285-5.143,8.665
			c0.473-1.232,6.43,0.769,6.149,1.06c1.416-0.394,3.393,0.394,3.656,0.372c-0.159-0.883,0.857-1.739,1.7-1.434
			c0.843,0.306,3.719-1.231,4.13-3.11c0.227-1.04,0.558-2.059,0.87-3.079c0.273-0.26,0.805-0.773,1.078-1.033
			c1.54-5.645,0.685,1.193,5.059-17.289c0.091,0.409,0.214,0.818,0.37,1.234C2545.55,365.815,2550.813,328.006,2535.499,299.795z
			 M813.923,612.405c-1.163-0.416-2.169-1.085-2.923-2.059c-3.28-1.721-6.547-3.585-9.248-6.15c-0.026-0.461-0.084-1.39-0.11-1.857
			c2.47-0.074,10.571-0.007,14.08,1.851c0.24,0.896,0.519,1.786,0.844,2.676C815.95,608.827,815.047,610.684,813.923,612.405z
			 M760.752,665.479c-3.961-2.64-5.778-4.382-10.813-7.404c-1.039-0.487-1.455-1.578-1.883-2.533
			c12.984,0.449,12.128,1.226,14.548,2.968C762.668,660.978,762.168,663.42,760.752,665.479z M924.662,619.166
			c0,0,74.649,13.65,140.281,21.571c-5.298,4.125-1.896,3.099-135.225-11.296C925.129,628.946,918.378,632.311,924.662,619.166z
			 M1049.663,650.067c0.026,0.403,0.078,1.208,0.104,1.611c-9.651,0-127.233-8.977-127.839-9.852
			c-1.072-1.546-0.851-3.572-1.318-5.319C928.482,636.066,1043.036,647.786,1049.663,650.067z M879.434,625.949
			c2.089-3.374,3.624-1.837,3.82-9.251c0.036-1.359,0.245-2.78,1.05-3.876l0.007,0.025c4.932-0.363,20.609,1.118,22.796,4.554
			c2.403,3.776-3.043,8.272-0.203,17.845c1.25,4.216,0.786,6.443-3.771,5.858c-24.447-3.135-24.88-2.796-26.065-4.412
			C875.38,634.388,877.865,628.483,879.434,625.949z M859.187,632.655c-15.701-5.166-37.004-14.298-39.9-18.081
			c-0.533-2.819,1.214-5.365,2.89-7.449c0.643-2.656,2.78-5.007,1.974-7.878c0.864,0.175,1.734,0.357,2.624,0.546
			c0.123,0.357,0.37,1.059,0.494,1.416c1.682-1.215,3.715-0.792,5.559-0.253c-0.078,0.675-0.143,1.364-0.195,2.059
			c-2.897,1.598,0.468,5.118-1.669,7.125c-6.709,7.1,7.844,14.974,9.709,3.89c-0.481-2.143-1.559-4.234-1.111-6.482
			c0.675-0.559,1.448-1,2.202-1.461c0.688,0.169,1.383,0.344,2.098,0.533c0.539,1.492,1.026,2.609,3.371,7.254
			c1.189,0.87,2.319,1.825,3.436,2.799c5.975,2.117,12.392,2.371,18.49,3.988c-0.065,0.591-0.104,1.201-0.136,1.812
			c-0.987,0.565-1.124,1.507-0.896,2.526C865.272,636.991,865.836,634.843,859.187,632.655z M1196.669,718.637
			c-3.37,2.162-321.026-22.152-329.406-25.842c-0.5-1.234-0.682-2.552-0.377-3.845c1.061-5.922-2.432-5.528,3.26-27.823
			c0.662-2.468,0.435-5.209,1.76-7.462c35.497,5.105,335.224,27.842,335.224,27.842
			C1205.416,689.815,1198.62,717.385,1196.669,718.637z M1205.74,664.333c-7.051-0.409-14.134-0.918-21.198-1.468
			c-103.094-8.027-112.836-6.946-107.109-13.257c2.31-2.546,9.107-3.451,12.126-6.27c39.251,4.264,84.778,6.767,129.103,6.325
			C1211.621,668.251,1214.928,664.866,1205.74,664.333z M1261.167,667.439c-3.135,2.039-4.495,1.391-35.502-1.224
			c-0.066-4.124,1.705-8.167,4.55-11.116c5.12-5.307,7.986-3.509,11.181-4.161c1.553-1.432,4.813-1.131,6.801-1.359
			c4.718-0.543,10.469-1.935,13.94,2.305C1265.441,655.918,1265.82,664.412,1261.167,667.439z"/>
		<path d="M2481.323,357.084c0.052,0.14,0.043,0.082,0.001-0.095C2481.284,356.934,2481.275,356.956,2481.323,357.084z"/>
	</g>
	<path d="M2579.438,226.817c10.188,16.207,20.76,20.955,37.871,70.246c24.073,69.347-4.729,138.789-10.772,135.764
		c0.446,0.223,0.028,1.441-0.234,1.708c-0.624,0.635-2.268,0.413-3.006,0.181c-0.012-3.421-1.875-1.544-2.875-1.02
		c-1.833,0.96-4.076-0.402-4.027-2.502c0.027-1.15,1.067-2.95-0.036-3.936c-1.25-1.117-3.626,0.782-5.522-1.77
		c-0.992-1.336-1.19-3.803,1.854-7.186c0.203-4.194,1.648-4.56,2.653-7.381c1.422-3.989,3.955-9.588,6.544-19.311
		c15.121-56.782-10.986-109.796-11.983-113.675c-2.24-3.813-8.571-15.507-8.573-15.509c-1.831-4.633-20.1-28.828-24.082-33.343
		c-0.238-0.27-0.248-2.239-0.625-2.868c-0.087-0.145-2.617-2.693-1.005-2.754c0.487-0.018,0.484,0.708,0.578,1.186
		c0.189,0.959,1.435,1.341,2.375,1.074c1.429-0.406,3.688-2.857,5.308-1.461c0.112-2.733,4.24-0.184,7.623-1.354
		C2574.373,221.912,2574.67,219.232,2579.438,226.817z"/>
	<path d="M2538.175,234.291c23.45,21.558,31.018,39.521,35.396,46.852c0.059,0.325,0.169,0.974,0.221,1.305
		c0.364,0.058,1.091,0.182,1.461,0.247c0.11,1.364,0.286,2.734,0.474,4.105c6.769,9.98,26.913,64.871,4.04,118.961
		c-2.448,3.429-4.877,6.956-6.566,10.833c-1.747,0.019-3.475,0.013-5.17-0.007c0-0.864,0.039-1.728,0.11-2.585
		c-0.78-0.019-1.52-0.032-2.221-0.039c-0.786-0.974-1.591-1.916-2.338-2.884c-0.026-1.201-0.02-2.409,0.032-3.604
		c0.422-0.007,1.279-0.013,1.708-0.013c0.221-1.422,0.565-2.819,1-4.195c12.509-20.933,14.495-65.481,7.884-83.202
		c0.039-0.331,0.117-0.987,0.149-1.312c-3.262-5.947-4.621-30.669-31.265-62.218c-2.214-4-10.762-12.353-11.08-16.938
		c0.156-0.76,0.338-1.513,0.532-2.267c0.416-0.019,1.234-0.052,1.649-0.071c0.26-0.305,0.78-0.929,1.046-1.24
		c0.89-0.026,1.832-0.039,2.806-0.052C2538.077,235.544,2538.143,234.713,2538.175,234.291z"/>
	<path d="M2557.594,236.668c0.847,0.469,8.553,9.488,8.98,10.013c0.469,0.578,2.826,4.62,3.675,3.76
		c-0.311,0.967-0.622,1.935-0.933,2.902c0.616,0.068,1.233,0.136,1.85,0.204c-0.179-0.329-0.358-0.658-0.537-0.987
		c6.206,11.401,34.011,46.696,31.815,106.978c-0.776,21.302-7.573,45.985-10.156,49.576c-1.361,1.892-3.393,2.36-5.303,3.325
		c-0.101-0.761-0.033-1.572-0.016-2.353c-0.76,0.032-1.487,0.065-2.176,0.11c-0.857,0.318-1.643,0.63-2.442,0.935
		c-1.178-0.294-2.469,0.056-3.653,0.199c-0.634-1.878,0.396-4.159,2.223-4.925c2.625-7.351,3.844-13.192,7.297-11.569
		c-0.957-0.044-1.914-0.088-2.871-0.132c8.269-32.049,7.684-24.746,3.75-74.814c0.101,0.535,0.202,1.07,0.303,1.605
		c-0.509,0.071-1.018,0.141-1.527,0.212c0.673-0.093-3.939-16.851-3.793-18.238c0.867-0.127,1.758-0.13,2.637-0.171
		c-4.729,1.783-7.455-11.654-7.445-16.957c-0.296-0.034-0.592-0.068-0.888-0.102c0.047,0-0.043,2.511-0.074,2.7
		c-0.011-0.018-7.594-15.339-14.545-27.076c-0.357-0.18-0.713-0.361-1.07-0.541c-2.117-3.283-4.125-6.694-6.815-9.555l1.26-0.292
		c-0.052-0.396-0.169-1.182-0.228-1.572c-0.636-0.585-1.266-1.163-1.838-1.741c-0.013-1.87-0.019-3.734,0.02-5.605
		c-0.325,0.032-0.968,0.097-1.292,0.13c0.227-0.76,0.52-1.513,0.805-2.273c-0.266-0.435-0.799-1.292-1.065-1.728
		c0.565-0.019,1.695-0.065,2.26-0.084c0.007-0.253,0.02-0.76,0.026-1.013C2556.269,237.363,2557.152,236.902,2557.594,236.668z"/>
	<path d="M2515.392,251.56c0.584,0.013,1.208,0.039,1.884,0.071c2.598,2.533,5.397,4.858,7.885,7.527
		c0.37,0.045,1.097,0.136,1.468,0.175c0.156,0.695,0.351,1.39,0.578,2.091c0.507,0.156,1.059,0.318,1.637,0.487
		c0.883,2.052,2.682,3.403,4.26,4.916c0.305,0.117,0.903,0.351,1.208,0.474c-0.597-0.572-1.163-1.137-1.676-1.708
		c-0.24-0.084-0.721-0.253-0.968-0.338c1.955-2.507-0.474-5.17-1.701-7.339c0.24-0.987,0.441-1.981,0.701-2.968
		c-0.396-0.013-1.175-0.026-1.572-0.039c0.007-0.604,0.02-1.805,0.026-2.409c3.943,1.068,2.464,0.83,5.267,1.072
		c-0.046-0.5-0.15-1.487-0.195-1.987c3.832,3.098,36.992,36.129,40.27,94.486c1.673,29.788-8.42,53.616-11.042,55.385
		c-7.105,3.608-2.352-0.961-9.311-0.559c-7.177,0.414-0.479-9.993,3.977-8.445c0.112-2.852,0.731-6.931-1.559-5.458
		c-3.309,2.128-8.161,22.115-14.588,15.276c-0.94-1-2.804-3.603-4.741-2.505c-0.231-1.972-0.62-1.704,0.877-4.227
		c0.467-5.891,36.048-62.384-23.926-131.535c-1.63-2.124-3.423-4.111-5.079-6.202c-0.045-0.695-0.059-1.377-0.026-2.059
		c0.682-0.675,1.396-1.344,2.137-2.013C2512.768,253.495,2514.613,253.216,2515.392,251.56z"/>
</g>
</svg>
