<svg viewBox="">
   <rect x="14" y="22" width="1" height="1" fill="rgb(0,0,0)"></rect>
   <rect x="15" y="22" width="1" height="1" fill="rgb(0,0,0)"></rect>
   <rect x="16" y="22" width="1" height="1" fill="rgb(0,0,0)"></rect>
   <rect x="17" y="22" width="1" height="1" fill="rgb(0,0,0)"></rect>
   <rect x="18" y="22" width="1" height="1" fill="rgb(0,0,0)"></rect>
   <rect x="19" y="22" width="1" height="1" fill="rgb(0,0,0)"></rect>
   <rect x="20" y="22" width="1" height="1" fill="rgb(0,0,0)"></rect>
   <rect x="21" y="22" width="1" height="1" fill="rgb(0,0,0)"></rect>
   <rect x="22" y="22" width="1" height="1" fill="rgb(0,0,0)"></rect>
   <rect x="23" y="22" width="1" height="1" fill="rgb(0,0,0)"></rect>
   <rect x="24" y="22" width="1" height="1" fill="rgb(0,0,0)"></rect>
   <rect x="25" y="22" width="1" height="1" fill="rgb(0,0,0)"></rect>
   <rect x="26" y="22" width="1" height="1" fill="rgb(0,0,0)"></rect>
   <rect x="27" y="22" width="1" height="1" fill="rgb(0,0,0)"></rect>
   <rect x="28" y="22" width="1" height="1" fill="rgb(0,0,0)"></rect>
   <rect x="29" y="22" width="1" height="1" fill="rgb(0,0,0)"></rect>
   <rect x="30" y="22" width="1" height="1" fill="rgb(0,0,0)"></rect>
   <rect x="31" y="22" width="1" height="1" fill="rgb(0,0,0)"></rect>
   <rect x="32" y="22" width="1" height="1" fill="rgb(0,0,0)"></rect>
   <rect x="33" y="22" width="1" height="1" fill="rgb(0,0,0)"></rect>
   <rect x="34" y="22" width="1" height="1" fill="rgb(0,0,0)"></rect>
   <rect x="35" y="22" width="1" height="1" fill="rgb(0,0,0)"></rect>
   <rect x="36" y="22" width="1" height="1" fill="rgb(0,0,0)"></rect>
   <rect x="37" y="22" width="1" height="1" fill="rgb(0,0,0)"></rect>
   <rect x="38" y="22" width="1" height="1" fill="rgb(0,0,0)"></rect>
   <rect x="39" y="22" width="1" height="1" fill="rgb(0,0,0)"></rect>
   <rect x="40" y="22" width="1" height="1" fill="rgb(0,0,0)"></rect>
   <rect x="41" y="22" width="1" height="1" fill="rgb(0,0,0)"></rect>
   <rect x="42" y="22" width="1" height="1" fill="rgb(0,0,0)"></rect>
   <rect x="43" y="22" width="1" height="1" fill="rgb(0,0,0)"></rect>
   <rect x="44" y="22" width="1" height="1" fill="rgb(0,0,0)"></rect>
   <rect x="45" y="22" width="1" height="1" fill="rgb(0,0,0)"></rect>
   <rect x="46" y="22" width="1" height="1" fill="rgb(0,0,0)"></rect>
   <rect x="47" y="22" width="1" height="1" fill="rgb(0,0,0)"></rect>
   <rect x="48" y="22" width="1" height="1" fill="rgb(0,0,0)"></rect>
   <rect x="49" y="22" width="1" height="1" fill="rgb(0,0,0)"></rect>
   <rect x="50" y="22" width="1" height="1" fill="rgb(0,0,0)"></rect>
   <rect x="51" y="22" width="1" height="1" fill="rgb(0,0,0)"></rect>
   <rect x="52" y="22" width="1" height="1" fill="rgb(0,0,0)"></rect>
   <rect x="53" y="22" width="1" height="1" fill="rgb(0,0,0)"></rect>
   <rect x="54" y="22" width="1" height="1" fill="rgb(0,0,0)"></rect>
   <rect x="55" y="22" width="1" height="1" fill="rgb(0,0,0)"></rect>
   <rect x="56" y="22" width="1" height="1" fill="rgb(0,0,0)"></rect>
   <rect x="57" y="22" width="1" height="1" fill="rgb(0,0,0)"></rect>
   <rect x="58" y="22" width="1" height="1" fill="rgb(0,0,0)"></rect>
   <rect x="59" y="22" width="1" height="1" fill="rgb(0,0,0)"></rect>
   <rect x="60" y="22" width="1" height="1" fill="rgb(0,0,0)"></rect>
   <rect x="61" y="22" width="1" height="1" fill="rgb(0,0,0)"></rect>
   <rect x="62" y="22" width="1" height="1" fill="rgb(0,0,0)"></rect>
   <rect x="63" y="22" width="1" height="1" fill="rgb(0,0,0)"></rect>
   <rect x="14" y="23" width="1" height="1" fill="rgb(0,0,0)"></rect>
   <rect x="15" y="23" width="1" height="1" fill="rgb(0,0,0)"></rect>
   <rect x="16" y="23" width="1" height="1" fill="rgb(0,0,0)"></rect>
   <rect x="17" y="23" width="1" height="1" fill="rgb(0,0,0)"></rect>
   <rect x="18" y="23" width="1" height="1" fill="rgb(0,0,0)"></rect>
   <rect x="19" y="23" width="1" height="1" fill="rgb(0,0,0)"></rect>
   <rect x="20" y="23" width="1" height="1" fill="rgb(0,0,0)"></rect>
   <rect x="21" y="23" width="1" height="1" fill="rgb(0,0,0)"></rect>
   <rect x="22" y="23" width="1" height="1" fill="rgb(0,0,0)"></rect>
   <rect x="23" y="23" width="1" height="1" fill="rgb(0,0,0)"></rect>
   <rect x="24" y="23" width="1" height="1" fill="rgb(0,0,0)"></rect>
   <rect x="25" y="23" width="1" height="1" fill="rgb(0,0,0)"></rect>
   <rect x="26" y="23" width="1" height="1" fill="rgb(0,0,0)"></rect>
   <rect x="27" y="23" width="1" height="1" fill="rgb(0,0,0)"></rect>
   <rect x="28" y="23" width="1" height="1" fill="rgb(0,0,0)"></rect>
   <rect x="29" y="23" width="1" height="1" fill="rgb(0,0,0)"></rect>
   <rect x="30" y="23" width="1" height="1" fill="rgb(0,0,0)"></rect>
   <rect x="31" y="23" width="1" height="1" fill="rgb(0,0,0)"></rect>
   <rect x="32" y="23" width="1" height="1" fill="rgb(0,0,0)"></rect>
   <rect x="33" y="23" width="1" height="1" fill="rgb(0,0,0)"></rect>
   <rect x="34" y="23" width="1" height="1" fill="rgb(0,0,0)"></rect>
   <rect x="35" y="23" width="1" height="1" fill="rgb(0,0,0)"></rect>
   <rect x="36" y="23" width="1" height="1" fill="rgb(0,0,0)"></rect>
   <rect x="37" y="23" width="1" height="1" fill="rgb(0,0,0)"></rect>
   <rect x="38" y="23" width="1" height="1" fill="rgb(0,0,0)"></rect>
   <rect x="39" y="23" width="1" height="1" fill="rgb(0,0,0)"></rect>
   <rect x="40" y="23" width="1" height="1" fill="rgb(0,0,0)"></rect>
   <rect x="41" y="23" width="1" height="1" fill="rgb(0,0,0)"></rect>
   <rect x="42" y="23" width="1" height="1" fill="rgb(0,0,0)"></rect>
   <rect x="43" y="23" width="1" height="1" fill="rgb(0,0,0)"></rect>
   <rect x="44" y="23" width="1" height="1" fill="rgb(0,0,0)"></rect>
   <rect x="45" y="23" width="1" height="1" fill="rgb(0,0,0)"></rect>
   <rect x="46" y="23" width="1" height="1" fill="rgb(0,0,0)"></rect>
   <rect x="47" y="23" width="1" height="1" fill="rgb(0,0,0)"></rect>
   <rect x="48" y="23" width="1" height="1" fill="rgb(0,0,0)"></rect>
   <rect x="49" y="23" width="1" height="1" fill="rgb(0,0,0)"></rect>
   <rect x="50" y="23" width="1" height="1" fill="rgb(0,0,0)"></rect>
   <rect x="51" y="23" width="1" height="1" fill="rgb(0,0,0)"></rect>
   <rect x="52" y="23" width="1" height="1" fill="rgb(0,0,0)"></rect>
   <rect x="53" y="23" width="1" height="1" fill="rgb(0,0,0)"></rect>
   <rect x="54" y="23" width="1" height="1" fill="rgb(0,0,0)"></rect>
   <rect x="55" y="23" width="1" height="1" fill="rgb(0,0,0)"></rect>
   <rect x="56" y="23" width="1" height="1" fill="rgb(0,0,0)"></rect>
   <rect x="57" y="23" width="1" height="1" fill="rgb(0,0,0)"></rect>
   <rect x="58" y="23" width="1" height="1" fill="rgb(0,0,0)"></rect>
   <rect x="59" y="23" width="1" height="1" fill="rgb(0,0,0)"></rect>
   <rect x="60" y="23" width="1" height="1" fill="rgb(0,0,0)"></rect>
   <rect x="61" y="23" width="1" height="1" fill="rgb(0,0,0)"></rect>
   <rect x="62" y="23" width="1" height="1" fill="rgb(0,0,0)"></rect>
   <rect x="63" y="23" width="1" height="1" fill="rgb(0,0,0)"></rect>
   <rect x="4" y="24" width="1" height="1" fill="rgb(0,0,0)"></rect>
   <rect x="5" y="24" width="1" height="1" fill="rgb(0,0,0)"></rect>
   <rect x="36" y="24" width="1" height="1" fill="rgb(0,0,0)"></rect>
   <rect x="37" y="24" width="1" height="1" fill="rgb(0,0,0)"></rect>
   <rect x="38" y="24" width="1" height="1" fill="rgb(0,0,0)"></rect>
   <rect x="39" y="24" width="1" height="1" fill="rgb(0,0,0)"></rect>
   <rect x="40" y="24" width="1" height="1" fill="rgb(0,0,0)"></rect>
   <rect x="41" y="24" width="1" height="1" fill="rgb(0,0,0)"></rect>
   <rect x="4" y="25" width="1" height="1" fill="rgb(0,0,0)"></rect>
   <rect x="5" y="25" width="1" height="1" fill="rgb(0,0,0)"></rect>
   <rect x="36" y="25" width="1" height="1" fill="rgb(0,0,0)"></rect>
   <rect x="37" y="25" width="1" height="1" fill="rgb(0,0,0)"></rect>
   <rect x="38" y="25" width="1" height="1" fill="rgb(0,0,0)"></rect>
   <rect x="39" y="25" width="1" height="1" fill="rgb(0,0,0)"></rect>
   <rect x="40" y="25" width="1" height="1" fill="rgb(0,0,0)"></rect>
   <rect x="41" y="25" width="1" height="1" fill="rgb(0,0,0)"></rect>
   <rect x="4" y="26" width="1" height="1" fill="rgb(0,0,0)"></rect>
   <rect x="5" y="26" width="1" height="1" fill="rgb(0,0,0)"></rect>
   <rect x="6" y="26" width="1" height="1" fill="rgb(0,0,0)"></rect>
   <rect x="7" y="26" width="1" height="1" fill="rgb(0,0,0)"></rect>
   <rect x="32" y="26" width="1" height="1" fill="rgb(0,0,0)"></rect>
   <rect x="33" y="26" width="1" height="1" fill="rgb(0,0,0)"></rect>
   <rect x="34" y="26" width="1" height="1" fill="rgb(0,0,0)"></rect>
   <rect x="35" y="26" width="1" height="1" fill="rgb(0,0,0)"></rect>
   <rect x="36" y="26" width="1" height="1" fill="rgb(0,0,0)"></rect>
   <rect x="37" y="26" width="1" height="1" fill="rgb(0,0,0)"></rect>
   <rect x="38" y="26" width="1" height="1" fill="rgb(0,0,0)"></rect>
   <rect x="39" y="26" width="1" height="1" fill="rgb(0,0,0)"></rect>
   <rect x="40" y="26" width="1" height="1" fill="rgb(0,0,0)"></rect>
   <rect x="41" y="26" width="1" height="1" fill="rgb(0,0,0)"></rect>
   <rect x="42" y="26" width="1" height="1" fill="rgb(0,0,0)"></rect>
   <rect x="43" y="26" width="1" height="1" fill="rgb(0,0,0)"></rect>
   <rect x="44" y="26" width="1" height="1" fill="rgb(0,0,0)"></rect>
   <rect x="45" y="26" width="1" height="1" fill="rgb(0,0,0)"></rect>
   <rect x="4" y="27" width="1" height="1" fill="rgb(0,0,0)"></rect>
   <rect x="5" y="27" width="1" height="1" fill="rgb(0,0,0)"></rect>
   <rect x="6" y="27" width="1" height="1" fill="rgb(0,0,0)"></rect>
   <rect x="7" y="27" width="1" height="1" fill="rgb(0,0,0)"></rect>
   <rect x="32" y="27" width="1" height="1" fill="rgb(0,0,0)"></rect>
   <rect x="33" y="27" width="1" height="1" fill="rgb(0,0,0)"></rect>
   <rect x="34" y="27" width="1" height="1" fill="rgb(0,0,0)"></rect>
   <rect x="35" y="27" width="1" height="1" fill="rgb(0,0,0)"></rect>
   <rect x="36" y="27" width="1" height="1" fill="rgb(0,0,0)"></rect>
   <rect x="37" y="27" width="1" height="1" fill="rgb(0,0,0)"></rect>
   <rect x="38" y="27" width="1" height="1" fill="rgb(0,0,0)"></rect>
   <rect x="39" y="27" width="1" height="1" fill="rgb(0,0,0)"></rect>
   <rect x="40" y="27" width="1" height="1" fill="rgb(0,0,0)"></rect>
   <rect x="41" y="27" width="1" height="1" fill="rgb(0,0,0)"></rect>
   <rect x="42" y="27" width="1" height="1" fill="rgb(0,0,0)"></rect>
   <rect x="43" y="27" width="1" height="1" fill="rgb(0,0,0)"></rect>
   <rect x="44" y="27" width="1" height="1" fill="rgb(0,0,0)"></rect>
   <rect x="45" y="27" width="1" height="1" fill="rgb(0,0,0)"></rect>
   <rect x="4" y="28" width="1" height="1" fill="rgb(0,0,0)"></rect>
   <rect x="5" y="28" width="1" height="1" fill="rgb(0,0,0)"></rect>
   <rect x="6" y="28" width="1" height="1" fill="rgb(0,0,0)"></rect>
   <rect x="7" y="28" width="1" height="1" fill="rgb(0,0,0)"></rect>
   <rect x="8" y="28" width="1" height="1" fill="rgb(0,0,0)"></rect>
   <rect x="9" y="28" width="1" height="1" fill="rgb(0,0,0)"></rect>
   <rect x="28" y="28" width="1" height="1" fill="rgb(0,0,0)"></rect>
   <rect x="29" y="28" width="1" height="1" fill="rgb(0,0,0)"></rect>
   <rect x="30" y="28" width="1" height="1" fill="rgb(0,0,0)"></rect>
   <rect x="31" y="28" width="1" height="1" fill="rgb(0,0,0)"></rect>
   <rect x="34" y="28" width="1" height="1" fill="rgb(0,0,0)"></rect>
   <rect x="35" y="28" width="1" height="1" fill="rgb(0,0,0)"></rect>
   <rect x="36" y="28" width="1" height="1" fill="rgb(38,141,59)"></rect>
   <rect x="37" y="28" width="1" height="1" fill="rgb(38,141,59)"></rect>
   <rect x="38" y="28" width="1" height="1" fill="rgb(38,141,59)"></rect>
   <rect x="39" y="28" width="1" height="1" fill="rgb(38,141,59)"></rect>
   <rect x="40" y="28" width="1" height="1" fill="rgb(38,141,59)"></rect>
   <rect x="41" y="28" width="1" height="1" fill="rgb(38,141,59)"></rect>
   <rect x="42" y="28" width="1" height="1" fill="rgb(0,0,0)"></rect>
   <rect x="43" y="28" width="1" height="1" fill="rgb(0,0,0)"></rect>
   <rect x="46" y="28" width="1" height="1" fill="rgb(0,0,0)"></rect>
   <rect x="47" y="28" width="1" height="1" fill="rgb(0,0,0)"></rect>
   <rect x="48" y="28" width="1" height="1" fill="rgb(0,0,0)"></rect>
   <rect x="49" y="28" width="1" height="1" fill="rgb(0,0,0)"></rect>
   <rect x="4" y="29" width="1" height="1" fill="rgb(0,0,0)"></rect>
   <rect x="5" y="29" width="1" height="1" fill="rgb(0,0,0)"></rect>
   <rect x="6" y="29" width="1" height="1" fill="rgb(0,0,0)"></rect>
   <rect x="7" y="29" width="1" height="1" fill="rgb(0,0,0)"></rect>
   <rect x="8" y="29" width="1" height="1" fill="rgb(0,0,0)"></rect>
   <rect x="9" y="29" width="1" height="1" fill="rgb(0,0,0)"></rect>
   <rect x="28" y="29" width="1" height="1" fill="rgb(0,0,0)"></rect>
   <rect x="29" y="29" width="1" height="1" fill="rgb(0,0,0)"></rect>
   <rect x="30" y="29" width="1" height="1" fill="rgb(0,0,0)"></rect>
   <rect x="31" y="29" width="1" height="1" fill="rgb(0,0,0)"></rect>
   <rect x="34" y="29" width="1" height="1" fill="rgb(0,0,0)"></rect>
   <rect x="35" y="29" width="1" height="1" fill="rgb(0,0,0)"></rect>
   <rect x="36" y="29" width="1" height="1" fill="rgb(38,141,59)"></rect>
   <rect x="37" y="29" width="1" height="1" fill="rgb(38,141,59)"></rect>
   <rect x="38" y="29" width="1" height="1" fill="rgb(38,141,59)"></rect>
   <rect x="39" y="29" width="1" height="1" fill="rgb(38,141,59)"></rect>
   <rect x="40" y="29" width="1" height="1" fill="rgb(38,141,59)"></rect>
   <rect x="41" y="29" width="1" height="1" fill="rgb(38,141,59)"></rect>
   <rect x="42" y="29" width="1" height="1" fill="rgb(0,0,0)"></rect>
   <rect x="43" y="29" width="1" height="1" fill="rgb(0,0,0)"></rect>
   <rect x="46" y="29" width="1" height="1" fill="rgb(0,0,0)"></rect>
   <rect x="47" y="29" width="1" height="1" fill="rgb(0,0,0)"></rect>
   <rect x="48" y="29" width="1" height="1" fill="rgb(0,0,0)"></rect>
   <rect x="49" y="29" width="1" height="1" fill="rgb(0,0,0)"></rect>
   <rect x="4" y="30" width="1" height="1" fill="rgb(0,0,0)"></rect>
   <rect x="5" y="30" width="1" height="1" fill="rgb(0,0,0)"></rect>
   <rect x="6" y="30" width="1" height="1" fill="rgb(0,0,0)"></rect>
   <rect x="7" y="30" width="1" height="1" fill="rgb(0,0,0)"></rect>
   <rect x="8" y="30" width="1" height="1" fill="rgb(0,0,0)"></rect>
   <rect x="9" y="30" width="1" height="1" fill="rgb(0,0,0)"></rect>
   <rect x="10" y="30" width="1" height="1" fill="rgb(0,0,0)"></rect>
   <rect x="11" y="30" width="1" height="1" fill="rgb(0,0,0)"></rect>
   <rect x="12" y="30" width="1" height="1" fill="rgb(0,0,0)"></rect>
   <rect x="13" y="30" width="1" height="1" fill="rgb(0,0,0)"></rect>
   <rect x="14" y="30" width="1" height="1" fill="rgb(0,0,0)"></rect>
   <rect x="15" y="30" width="1" height="1" fill="rgb(0,0,0)"></rect>
   <rect x="16" y="30" width="1" height="1" fill="rgb(0,0,0)"></rect>
   <rect x="17" y="30" width="1" height="1" fill="rgb(0,0,0)"></rect>
   <rect x="18" y="30" width="1" height="1" fill="rgb(0,0,0)"></rect>
   <rect x="19" y="30" width="1" height="1" fill="rgb(0,0,0)"></rect>
   <rect x="20" y="30" width="1" height="1" fill="rgb(0,0,0)"></rect>
   <rect x="21" y="30" width="1" height="1" fill="rgb(0,0,0)"></rect>
   <rect x="22" y="30" width="1" height="1" fill="rgb(0,0,0)"></rect>
   <rect x="23" y="30" width="1" height="1" fill="rgb(0,0,0)"></rect>
   <rect x="24" y="30" width="1" height="1" fill="rgb(0,0,0)"></rect>
   <rect x="25" y="30" width="1" height="1" fill="rgb(0,0,0)"></rect>
   <rect x="26" y="30" width="1" height="1" fill="rgb(0,0,0)"></rect>
   <rect x="27" y="30" width="1" height="1" fill="rgb(0,0,0)"></rect>
   <rect x="34" y="30" width="1" height="1" fill="rgb(0,0,0)"></rect>
   <rect x="35" y="30" width="1" height="1" fill="rgb(0,0,0)"></rect>
   <rect x="36" y="30" width="1" height="1" fill="rgb(38,141,59)"></rect>
   <rect x="37" y="30" width="1" height="1" fill="rgb(38,141,59)"></rect>
   <rect x="38" y="30" width="1" height="1" fill="rgb(38,141,59)"></rect>
   <rect x="39" y="30" width="1" height="1" fill="rgb(38,141,59)"></rect>
   <rect x="40" y="30" width="1" height="1" fill="rgb(38,141,59)"></rect>
   <rect x="41" y="30" width="1" height="1" fill="rgb(38,141,59)"></rect>
   <rect x="42" y="30" width="1" height="1" fill="rgb(0,0,0)"></rect>
   <rect x="43" y="30" width="1" height="1" fill="rgb(0,0,0)"></rect>
   <rect x="50" y="30" width="1" height="1" fill="rgb(0,0,0)"></rect>
   <rect x="51" y="30" width="1" height="1" fill="rgb(0,0,0)"></rect>
   <rect x="52" y="30" width="1" height="1" fill="rgb(0,0,0)"></rect>
   <rect x="53" y="30" width="1" height="1" fill="rgb(0,0,0)"></rect>
   <rect x="54" y="30" width="1" height="1" fill="rgb(0,0,0)"></rect>
   <rect x="55" y="30" width="1" height="1" fill="rgb(0,0,0)"></rect>
   <rect x="4" y="31" width="1" height="1" fill="rgb(0,0,0)"></rect>
   <rect x="5" y="31" width="1" height="1" fill="rgb(0,0,0)"></rect>
   <rect x="6" y="31" width="1" height="1" fill="rgb(0,0,0)"></rect>
   <rect x="7" y="31" width="1" height="1" fill="rgb(0,0,0)"></rect>
   <rect x="8" y="31" width="1" height="1" fill="rgb(0,0,0)"></rect>
   <rect x="9" y="31" width="1" height="1" fill="rgb(0,0,0)"></rect>
   <rect x="10" y="31" width="1" height="1" fill="rgb(0,0,0)"></rect>
   <rect x="11" y="31" width="1" height="1" fill="rgb(0,0,0)"></rect>
   <rect x="12" y="31" width="1" height="1" fill="rgb(0,0,0)"></rect>
   <rect x="13" y="31" width="1" height="1" fill="rgb(0,0,0)"></rect>
   <rect x="14" y="31" width="1" height="1" fill="rgb(0,0,0)"></rect>
   <rect x="15" y="31" width="1" height="1" fill="rgb(0,0,0)"></rect>
   <rect x="16" y="31" width="1" height="1" fill="rgb(0,0,0)"></rect>
   <rect x="17" y="31" width="1" height="1" fill="rgb(0,0,0)"></rect>
   <rect x="18" y="31" width="1" height="1" fill="rgb(0,0,0)"></rect>
   <rect x="19" y="31" width="1" height="1" fill="rgb(0,0,0)"></rect>
   <rect x="20" y="31" width="1" height="1" fill="rgb(0,0,0)"></rect>
   <rect x="21" y="31" width="1" height="1" fill="rgb(0,0,0)"></rect>
   <rect x="22" y="31" width="1" height="1" fill="rgb(0,0,0)"></rect>
   <rect x="23" y="31" width="1" height="1" fill="rgb(0,0,0)"></rect>
   <rect x="24" y="31" width="1" height="1" fill="rgb(0,0,0)"></rect>
   <rect x="25" y="31" width="1" height="1" fill="rgb(0,0,0)"></rect>
   <rect x="26" y="31" width="1" height="1" fill="rgb(0,0,0)"></rect>
   <rect x="27" y="31" width="1" height="1" fill="rgb(0,0,0)"></rect>
   <rect x="34" y="31" width="1" height="1" fill="rgb(0,0,0)"></rect>
   <rect x="35" y="31" width="1" height="1" fill="rgb(0,0,0)"></rect>
   <rect x="36" y="31" width="1" height="1" fill="rgb(38,141,59)"></rect>
   <rect x="37" y="31" width="1" height="1" fill="rgb(38,141,59)"></rect>
   <rect x="38" y="31" width="1" height="1" fill="rgb(38,141,59)"></rect>
   <rect x="39" y="31" width="1" height="1" fill="rgb(38,141,59)"></rect>
   <rect x="40" y="31" width="1" height="1" fill="rgb(38,141,59)"></rect>
   <rect x="41" y="31" width="1" height="1" fill="rgb(38,141,59)"></rect>
   <rect x="42" y="31" width="1" height="1" fill="rgb(0,0,0)"></rect>
   <rect x="43" y="31" width="1" height="1" fill="rgb(0,0,0)"></rect>
   <rect x="50" y="31" width="1" height="1" fill="rgb(0,0,0)"></rect>
   <rect x="51" y="31" width="1" height="1" fill="rgb(0,0,0)"></rect>
   <rect x="52" y="31" width="1" height="1" fill="rgb(0,0,0)"></rect>
   <rect x="53" y="31" width="1" height="1" fill="rgb(0,0,0)"></rect>
   <rect x="54" y="31" width="1" height="1" fill="rgb(0,0,0)"></rect>
   <rect x="55" y="31" width="1" height="1" fill="rgb(0,0,0)"></rect>
   <rect x="2" y="32" width="1" height="1" fill="rgb(0,0,0)"></rect>
   <rect x="3" y="32" width="1" height="1" fill="rgb(0,0,0)"></rect>
   <rect x="4" y="32" width="1" height="1" fill="rgb(0,0,0)"></rect>
   <rect x="5" y="32" width="1" height="1" fill="rgb(0,0,0)"></rect>
   <rect x="6" y="32" width="1" height="1" fill="rgb(0,0,0)"></rect>
   <rect x="7" y="32" width="1" height="1" fill="rgb(0,0,0)"></rect>
   <rect x="8" y="32" width="1" height="1" fill="rgb(0,0,0)"></rect>
   <rect x="9" y="32" width="1" height="1" fill="rgb(0,0,0)"></rect>
   <rect x="10" y="32" width="1" height="1" fill="rgb(0,0,0)"></rect>
   <rect x="11" y="32" width="1" height="1" fill="rgb(0,0,0)"></rect>
   <rect x="12" y="32" width="1" height="1" fill="rgb(0,0,0)"></rect>
   <rect x="13" y="32" width="1" height="1" fill="rgb(0,0,0)"></rect>
   <rect x="14" y="32" width="1" height="1" fill="rgb(0,0,0)"></rect>
   <rect x="15" y="32" width="1" height="1" fill="rgb(0,0,0)"></rect>
   <rect x="16" y="32" width="1" height="1" fill="rgb(0,0,0)"></rect>
   <rect x="17" y="32" width="1" height="1" fill="rgb(0,0,0)"></rect>
   <rect x="18" y="32" width="1" height="1" fill="rgb(0,0,0)"></rect>
   <rect x="19" y="32" width="1" height="1" fill="rgb(0,0,0)"></rect>
   <rect x="20" y="32" width="1" height="1" fill="rgb(0,0,0)"></rect>
   <rect x="21" y="32" width="1" height="1" fill="rgb(0,0,0)"></rect>
   <rect x="22" y="32" width="1" height="1" fill="rgb(38,141,59)"></rect>
   <rect x="23" y="32" width="1" height="1" fill="rgb(38,141,59)"></rect>
   <rect x="24" y="32" width="1" height="1" fill="rgb(38,141,59)"></rect>
   <rect x="25" y="32" width="1" height="1" fill="rgb(38,141,59)"></rect>
   <rect x="26" y="32" width="1" height="1" fill="rgb(38,141,59)"></rect>
   <rect x="27" y="32" width="1" height="1" fill="rgb(38,141,59)"></rect>
   <rect x="28" y="32" width="1" height="1" fill="rgb(0,0,0)"></rect>
   <rect x="29" y="32" width="1" height="1" fill="rgb(0,0,0)"></rect>
   <rect x="30" y="32" width="1" height="1" fill="rgb(0,0,0)"></rect>
   <rect x="31" y="32" width="1" height="1" fill="rgb(0,0,0)"></rect>
   <rect x="32" y="32" width="1" height="1" fill="rgb(0,0,0)"></rect>
   <rect x="33" y="32" width="1" height="1" fill="rgb(0,0,0)"></rect>
   <rect x="34" y="32" width="1" height="1" fill="rgb(0,0,0)"></rect>
   <rect x="35" y="32" width="1" height="1" fill="rgb(0,0,0)"></rect>
   <rect x="36" y="32" width="1" height="1" fill="rgb(38,141,59)"></rect>
   <rect x="37" y="32" width="1" height="1" fill="rgb(38,141,59)"></rect>
   <rect x="38" y="32" width="1" height="1" fill="rgb(38,141,59)"></rect>
   <rect x="39" y="32" width="1" height="1" fill="rgb(38,141,59)"></rect>
   <rect x="40" y="32" width="1" height="1" fill="rgb(38,141,59)"></rect>
   <rect x="41" y="32" width="1" height="1" fill="rgb(38,141,59)"></rect>
   <rect x="42" y="32" width="1" height="1" fill="rgb(0,0,0)"></rect>
   <rect x="43" y="32" width="1" height="1" fill="rgb(0,0,0)"></rect>
   <rect x="44" y="32" width="1" height="1" fill="rgb(0,0,0)"></rect>
   <rect x="45" y="32" width="1" height="1" fill="rgb(0,0,0)"></rect>
   <rect x="46" y="32" width="1" height="1" fill="rgb(0,0,0)"></rect>
   <rect x="47" y="32" width="1" height="1" fill="rgb(0,0,0)"></rect>
   <rect x="48" y="32" width="1" height="1" fill="rgb(0,0,0)"></rect>
   <rect x="49" y="32" width="1" height="1" fill="rgb(0,0,0)"></rect>
   <rect x="50" y="32" width="1" height="1" fill="rgb(38,141,59)"></rect>
   <rect x="51" y="32" width="1" height="1" fill="rgb(38,141,59)"></rect>
   <rect x="52" y="32" width="1" height="1" fill="rgb(38,141,59)"></rect>
   <rect x="53" y="32" width="1" height="1" fill="rgb(38,141,59)"></rect>
   <rect x="54" y="32" width="1" height="1" fill="rgb(0,0,0)"></rect>
   <rect x="55" y="32" width="1" height="1" fill="rgb(0,0,0)"></rect>
   <rect x="56" y="32" width="1" height="1" fill="rgb(0,0,0)"></rect>
   <rect x="57" y="32" width="1" height="1" fill="rgb(0,0,0)"></rect>
   <rect x="2" y="33" width="1" height="1" fill="rgb(0,0,0)"></rect>
   <rect x="3" y="33" width="1" height="1" fill="rgb(0,0,0)"></rect>
   <rect x="4" y="33" width="1" height="1" fill="rgb(0,0,0)"></rect>
   <rect x="5" y="33" width="1" height="1" fill="rgb(0,0,0)"></rect>
   <rect x="6" y="33" width="1" height="1" fill="rgb(0,0,0)"></rect>
   <rect x="7" y="33" width="1" height="1" fill="rgb(0,0,0)"></rect>
   <rect x="8" y="33" width="1" height="1" fill="rgb(0,0,0)"></rect>
   <rect x="9" y="33" width="1" height="1" fill="rgb(0,0,0)"></rect>
   <rect x="10" y="33" width="1" height="1" fill="rgb(0,0,0)"></rect>
   <rect x="11" y="33" width="1" height="1" fill="rgb(0,0,0)"></rect>
   <rect x="12" y="33" width="1" height="1" fill="rgb(0,0,0)"></rect>
   <rect x="13" y="33" width="1" height="1" fill="rgb(0,0,0)"></rect>
   <rect x="14" y="33" width="1" height="1" fill="rgb(0,0,0)"></rect>
   <rect x="15" y="33" width="1" height="1" fill="rgb(0,0,0)"></rect>
   <rect x="16" y="33" width="1" height="1" fill="rgb(0,0,0)"></rect>
   <rect x="17" y="33" width="1" height="1" fill="rgb(0,0,0)"></rect>
   <rect x="18" y="33" width="1" height="1" fill="rgb(0,0,0)"></rect>
   <rect x="19" y="33" width="1" height="1" fill="rgb(0,0,0)"></rect>
   <rect x="20" y="33" width="1" height="1" fill="rgb(0,0,0)"></rect>
   <rect x="21" y="33" width="1" height="1" fill="rgb(0,0,0)"></rect>
   <rect x="22" y="33" width="1" height="1" fill="rgb(38,141,59)"></rect>
   <rect x="23" y="33" width="1" height="1" fill="rgb(38,141,59)"></rect>
   <rect x="24" y="33" width="1" height="1" fill="rgb(38,141,59)"></rect>
   <rect x="25" y="33" width="1" height="1" fill="rgb(38,141,59)"></rect>
   <rect x="26" y="33" width="1" height="1" fill="rgb(38,141,59)"></rect>
   <rect x="27" y="33" width="1" height="1" fill="rgb(38,141,59)"></rect>
   <rect x="28" y="33" width="1" height="1" fill="rgb(0,0,0)"></rect>
   <rect x="29" y="33" width="1" height="1" fill="rgb(0,0,0)"></rect>
   <rect x="30" y="33" width="1" height="1" fill="rgb(0,0,0)"></rect>
   <rect x="31" y="33" width="1" height="1" fill="rgb(0,0,0)"></rect>
   <rect x="32" y="33" width="1" height="1" fill="rgb(0,0,0)"></rect>
   <rect x="33" y="33" width="1" height="1" fill="rgb(0,0,0)"></rect>
   <rect x="34" y="33" width="1" height="1" fill="rgb(0,0,0)"></rect>
   <rect x="35" y="33" width="1" height="1" fill="rgb(0,0,0)"></rect>
   <rect x="36" y="33" width="1" height="1" fill="rgb(38,141,59)"></rect>
   <rect x="37" y="33" width="1" height="1" fill="rgb(38,141,59)"></rect>
   <rect x="38" y="33" width="1" height="1" fill="rgb(38,141,59)"></rect>
   <rect x="39" y="33" width="1" height="1" fill="rgb(38,141,59)"></rect>
   <rect x="40" y="33" width="1" height="1" fill="rgb(38,141,59)"></rect>
   <rect x="41" y="33" width="1" height="1" fill="rgb(38,141,59)"></rect>
   <rect x="42" y="33" width="1" height="1" fill="rgb(0,0,0)"></rect>
   <rect x="43" y="33" width="1" height="1" fill="rgb(0,0,0)"></rect>
   <rect x="44" y="33" width="1" height="1" fill="rgb(0,0,0)"></rect>
   <rect x="45" y="33" width="1" height="1" fill="rgb(0,0,0)"></rect>
   <rect x="46" y="33" width="1" height="1" fill="rgb(0,0,0)"></rect>
   <rect x="47" y="33" width="1" height="1" fill="rgb(0,0,0)"></rect>
   <rect x="48" y="33" width="1" height="1" fill="rgb(0,0,0)"></rect>
   <rect x="49" y="33" width="1" height="1" fill="rgb(0,0,0)"></rect>
   <rect x="50" y="33" width="1" height="1" fill="rgb(38,141,59)"></rect>
   <rect x="51" y="33" width="1" height="1" fill="rgb(38,141,59)"></rect>
   <rect x="52" y="33" width="1" height="1" fill="rgb(38,141,59)"></rect>
   <rect x="53" y="33" width="1" height="1" fill="rgb(38,141,59)"></rect>
   <rect x="54" y="33" width="1" height="1" fill="rgb(0,0,0)"></rect>
   <rect x="55" y="33" width="1" height="1" fill="rgb(0,0,0)"></rect>
   <rect x="56" y="33" width="1" height="1" fill="rgb(0,0,0)"></rect>
   <rect x="57" y="33" width="1" height="1" fill="rgb(0,0,0)"></rect>
   <rect x="4" y="34" width="1" height="1" fill="rgb(0,0,0)"></rect>
   <rect x="5" y="34" width="1" height="1" fill="rgb(0,0,0)"></rect>
   <rect x="6" y="34" width="1" height="1" fill="rgb(0,0,0)"></rect>
   <rect x="7" y="34" width="1" height="1" fill="rgb(0,0,0)"></rect>
   <rect x="22" y="34" width="1" height="1" fill="rgb(0,0,0)"></rect>
   <rect x="23" y="34" width="1" height="1" fill="rgb(0,0,0)"></rect>
   <rect x="24" y="34" width="1" height="1" fill="rgb(0,0,0)"></rect>
   <rect x="25" y="34" width="1" height="1" fill="rgb(0,0,0)"></rect>
   <rect x="26" y="34" width="1" height="1" fill="rgb(38,141,59)"></rect>
   <rect x="27" y="34" width="1" height="1" fill="rgb(38,141,59)"></rect>
   <rect x="28" y="34" width="1" height="1" fill="rgb(38,141,59)"></rect>
   <rect x="29" y="34" width="1" height="1" fill="rgb(38,141,59)"></rect>
   <rect x="30" y="34" width="1" height="1" fill="rgb(38,141,59)"></rect>
   <rect x="31" y="34" width="1" height="1" fill="rgb(38,141,59)"></rect>
   <rect x="32" y="34" width="1" height="1" fill="rgb(38,141,59)"></rect>
   <rect x="33" y="34" width="1" height="1" fill="rgb(38,141,59)"></rect>
   <rect x="34" y="34" width="1" height="1" fill="rgb(38,141,59)"></rect>
   <rect x="35" y="34" width="1" height="1" fill="rgb(38,141,59)"></rect>
   <rect x="36" y="34" width="1" height="1" fill="rgb(38,141,59)"></rect>
   <rect x="37" y="34" width="1" height="1" fill="rgb(38,141,59)"></rect>
   <rect x="38" y="34" width="1" height="1" fill="rgb(38,141,59)"></rect>
   <rect x="39" y="34" width="1" height="1" fill="rgb(38,141,59)"></rect>
   <rect x="40" y="34" width="1" height="1" fill="rgb(38,141,59)"></rect>
   <rect x="41" y="34" width="1" height="1" fill="rgb(38,141,59)"></rect>
   <rect x="42" y="34" width="1" height="1" fill="rgb(38,141,59)"></rect>
   <rect x="43" y="34" width="1" height="1" fill="rgb(38,141,59)"></rect>
   <rect x="44" y="34" width="1" height="1" fill="rgb(38,141,59)"></rect>
   <rect x="45" y="34" width="1" height="1" fill="rgb(38,141,59)"></rect>
   <rect x="46" y="34" width="1" height="1" fill="rgb(38,141,59)"></rect>
   <rect x="47" y="34" width="1" height="1" fill="rgb(38,141,59)"></rect>
   <rect x="48" y="34" width="1" height="1" fill="rgb(38,141,59)"></rect>
   <rect x="49" y="34" width="1" height="1" fill="rgb(38,141,59)"></rect>
   <rect x="50" y="34" width="1" height="1" fill="rgb(38,141,59)"></rect>
   <rect x="51" y="34" width="1" height="1" fill="rgb(38,141,59)"></rect>
   <rect x="52" y="34" width="1" height="1" fill="rgb(38,141,59)"></rect>
   <rect x="53" y="34" width="1" height="1" fill="rgb(38,141,59)"></rect>
   <rect x="54" y="34" width="1" height="1" fill="rgb(38,141,59)"></rect>
   <rect x="55" y="34" width="1" height="1" fill="rgb(38,141,59)"></rect>
   <rect x="56" y="34" width="1" height="1" fill="rgb(0,0,0)"></rect>
   <rect x="57" y="34" width="1" height="1" fill="rgb(0,0,0)"></rect>
   <rect x="4" y="35" width="1" height="1" fill="rgb(0,0,0)"></rect>
   <rect x="5" y="35" width="1" height="1" fill="rgb(0,0,0)"></rect>
   <rect x="6" y="35" width="1" height="1" fill="rgb(0,0,0)"></rect>
   <rect x="7" y="35" width="1" height="1" fill="rgb(0,0,0)"></rect>
   <rect x="22" y="35" width="1" height="1" fill="rgb(0,0,0)"></rect>
   <rect x="23" y="35" width="1" height="1" fill="rgb(0,0,0)"></rect>
   <rect x="24" y="35" width="1" height="1" fill="rgb(0,0,0)"></rect>
   <rect x="25" y="35" width="1" height="1" fill="rgb(0,0,0)"></rect>
   <rect x="26" y="35" width="1" height="1" fill="rgb(38,141,59)"></rect>
   <rect x="27" y="35" width="1" height="1" fill="rgb(38,141,59)"></rect>
   <rect x="28" y="35" width="1" height="1" fill="rgb(38,141,59)"></rect>
   <rect x="29" y="35" width="1" height="1" fill="rgb(38,141,59)"></rect>
   <rect x="30" y="35" width="1" height="1" fill="rgb(38,141,59)"></rect>
   <rect x="31" y="35" width="1" height="1" fill="rgb(38,141,59)"></rect>
   <rect x="32" y="35" width="1" height="1" fill="rgb(38,141,59)"></rect>
   <rect x="33" y="35" width="1" height="1" fill="rgb(38,141,59)"></rect>
   <rect x="34" y="35" width="1" height="1" fill="rgb(38,141,59)"></rect>
   <rect x="35" y="35" width="1" height="1" fill="rgb(38,141,59)"></rect>
   <rect x="36" y="35" width="1" height="1" fill="rgb(38,141,59)"></rect>
   <rect x="37" y="35" width="1" height="1" fill="rgb(38,141,59)"></rect>
   <rect x="38" y="35" width="1" height="1" fill="rgb(38,141,59)"></rect>
   <rect x="39" y="35" width="1" height="1" fill="rgb(38,141,59)"></rect>
   <rect x="40" y="35" width="1" height="1" fill="rgb(38,141,59)"></rect>
   <rect x="41" y="35" width="1" height="1" fill="rgb(38,141,59)"></rect>
   <rect x="42" y="35" width="1" height="1" fill="rgb(38,141,59)"></rect>
   <rect x="43" y="35" width="1" height="1" fill="rgb(38,141,59)"></rect>
   <rect x="44" y="35" width="1" height="1" fill="rgb(38,141,59)"></rect>
   <rect x="45" y="35" width="1" height="1" fill="rgb(38,141,59)"></rect>
   <rect x="46" y="35" width="1" height="1" fill="rgb(38,141,59)"></rect>
   <rect x="47" y="35" width="1" height="1" fill="rgb(38,141,59)"></rect>
   <rect x="48" y="35" width="1" height="1" fill="rgb(38,141,59)"></rect>
   <rect x="49" y="35" width="1" height="1" fill="rgb(38,141,59)"></rect>
   <rect x="50" y="35" width="1" height="1" fill="rgb(38,141,59)"></rect>
   <rect x="51" y="35" width="1" height="1" fill="rgb(38,141,59)"></rect>
   <rect x="52" y="35" width="1" height="1" fill="rgb(38,141,59)"></rect>
   <rect x="53" y="35" width="1" height="1" fill="rgb(38,141,59)"></rect>
   <rect x="54" y="35" width="1" height="1" fill="rgb(38,141,59)"></rect>
   <rect x="55" y="35" width="1" height="1" fill="rgb(38,141,59)"></rect>
   <rect x="56" y="35" width="1" height="1" fill="rgb(0,0,0)"></rect>
   <rect x="57" y="35" width="1" height="1" fill="rgb(0,0,0)"></rect>
   <rect x="26" y="36" width="1" height="1" fill="rgb(0,0,0)"></rect>
   <rect x="27" y="36" width="1" height="1" fill="rgb(0,0,0)"></rect>
   <rect x="28" y="36" width="1" height="1" fill="rgb(0,0,0)"></rect>
   <rect x="29" y="36" width="1" height="1" fill="rgb(0,0,0)"></rect>
   <rect x="30" y="36" width="1" height="1" fill="rgb(0,0,0)"></rect>
   <rect x="31" y="36" width="1" height="1" fill="rgb(0,0,0)"></rect>
   <rect x="32" y="36" width="1" height="1" fill="rgb(0,0,0)"></rect>
   <rect x="33" y="36" width="1" height="1" fill="rgb(0,0,0)"></rect>
   <rect x="34" y="36" width="1" height="1" fill="rgb(0,0,0)"></rect>
   <rect x="35" y="36" width="1" height="1" fill="rgb(0,0,0)"></rect>
   <rect x="36" y="36" width="1" height="1" fill="rgb(0,0,0)"></rect>
   <rect x="37" y="36" width="1" height="1" fill="rgb(0,0,0)"></rect>
   <rect x="38" y="36" width="1" height="1" fill="rgb(0,0,0)"></rect>
   <rect x="39" y="36" width="1" height="1" fill="rgb(0,0,0)"></rect>
   <rect x="40" y="36" width="1" height="1" fill="rgb(0,0,0)"></rect>
   <rect x="41" y="36" width="1" height="1" fill="rgb(0,0,0)"></rect>
   <rect x="42" y="36" width="1" height="1" fill="rgb(0,0,0)"></rect>
   <rect x="43" y="36" width="1" height="1" fill="rgb(0,0,0)"></rect>
   <rect x="44" y="36" width="1" height="1" fill="rgb(0,0,0)"></rect>
   <rect x="45" y="36" width="1" height="1" fill="rgb(0,0,0)"></rect>
   <rect x="46" y="36" width="1" height="1" fill="rgb(0,0,0)"></rect>
   <rect x="47" y="36" width="1" height="1" fill="rgb(0,0,0)"></rect>
   <rect x="48" y="36" width="1" height="1" fill="rgb(0,0,0)"></rect>
   <rect x="49" y="36" width="1" height="1" fill="rgb(0,0,0)"></rect>
   <rect x="50" y="36" width="1" height="1" fill="rgb(0,0,0)"></rect>
   <rect x="51" y="36" width="1" height="1" fill="rgb(0,0,0)"></rect>
   <rect x="52" y="36" width="1" height="1" fill="rgb(0,0,0)"></rect>
   <rect x="53" y="36" width="1" height="1" fill="rgb(0,0,0)"></rect>
   <rect x="54" y="36" width="1" height="1" fill="rgb(0,0,0)"></rect>
   <rect x="55" y="36" width="1" height="1" fill="rgb(0,0,0)"></rect>
   <rect x="26" y="37" width="1" height="1" fill="rgb(0,0,0)"></rect>
   <rect x="27" y="37" width="1" height="1" fill="rgb(0,0,0)"></rect>
   <rect x="28" y="37" width="1" height="1" fill="rgb(0,0,0)"></rect>
   <rect x="29" y="37" width="1" height="1" fill="rgb(0,0,0)"></rect>
   <rect x="30" y="37" width="1" height="1" fill="rgb(0,0,0)"></rect>
   <rect x="31" y="37" width="1" height="1" fill="rgb(0,0,0)"></rect>
   <rect x="32" y="37" width="1" height="1" fill="rgb(0,0,0)"></rect>
   <rect x="33" y="37" width="1" height="1" fill="rgb(0,0,0)"></rect>
   <rect x="34" y="37" width="1" height="1" fill="rgb(0,0,0)"></rect>
   <rect x="35" y="37" width="1" height="1" fill="rgb(0,0,0)"></rect>
   <rect x="36" y="37" width="1" height="1" fill="rgb(0,0,0)"></rect>
   <rect x="37" y="37" width="1" height="1" fill="rgb(0,0,0)"></rect>
   <rect x="38" y="37" width="1" height="1" fill="rgb(0,0,0)"></rect>
   <rect x="39" y="37" width="1" height="1" fill="rgb(0,0,0)"></rect>
   <rect x="40" y="37" width="1" height="1" fill="rgb(0,0,0)"></rect>
   <rect x="41" y="37" width="1" height="1" fill="rgb(0,0,0)"></rect>
   <rect x="42" y="37" width="1" height="1" fill="rgb(0,0,0)"></rect>
   <rect x="43" y="37" width="1" height="1" fill="rgb(0,0,0)"></rect>
   <rect x="44" y="37" width="1" height="1" fill="rgb(0,0,0)"></rect>
   <rect x="45" y="37" width="1" height="1" fill="rgb(0,0,0)"></rect>
   <rect x="46" y="37" width="1" height="1" fill="rgb(0,0,0)"></rect>
   <rect x="47" y="37" width="1" height="1" fill="rgb(0,0,0)"></rect>
   <rect x="48" y="37" width="1" height="1" fill="rgb(0,0,0)"></rect>
   <rect x="49" y="37" width="1" height="1" fill="rgb(0,0,0)"></rect>
   <rect x="50" y="37" width="1" height="1" fill="rgb(0,0,0)"></rect>
   <rect x="51" y="37" width="1" height="1" fill="rgb(0,0,0)"></rect>
   <rect x="52" y="37" width="1" height="1" fill="rgb(0,0,0)"></rect>
   <rect x="53" y="37" width="1" height="1" fill="rgb(0,0,0)"></rect>
   <rect x="54" y="37" width="1" height="1" fill="rgb(0,0,0)"></rect>
   <rect x="55" y="37" width="1" height="1" fill="rgb(0,0,0)"></rect>
   <rect x="22" y="38" width="1" height="1" fill="rgb(0,0,0)"></rect>
   <rect x="23" y="38" width="1" height="1" fill="rgb(0,0,0)"></rect>
   <rect x="30" y="38" width="1" height="1" fill="rgb(0,0,0)"></rect>
   <rect x="31" y="38" width="1" height="1" fill="rgb(0,0,0)"></rect>
   <rect x="50" y="38" width="1" height="1" fill="rgb(0,0,0)"></rect>
   <rect x="51" y="38" width="1" height="1" fill="rgb(0,0,0)"></rect>
   <rect x="58" y="38" width="1" height="1" fill="rgb(0,0,0)"></rect>
   <rect x="59" y="38" width="1" height="1" fill="rgb(0,0,0)"></rect>
   <rect x="22" y="39" width="1" height="1" fill="rgb(0,0,0)"></rect>
   <rect x="23" y="39" width="1" height="1" fill="rgb(0,0,0)"></rect>
   <rect x="30" y="39" width="1" height="1" fill="rgb(0,0,0)"></rect>
   <rect x="31" y="39" width="1" height="1" fill="rgb(0,0,0)"></rect>
   <rect x="50" y="39" width="1" height="1" fill="rgb(0,0,0)"></rect>
   <rect x="51" y="39" width="1" height="1" fill="rgb(0,0,0)"></rect>
   <rect x="58" y="39" width="1" height="1" fill="rgb(0,0,0)"></rect>
   <rect x="59" y="39" width="1" height="1" fill="rgb(0,0,0)"></rect>
   <rect x="24" y="40" width="1" height="1" fill="rgb(0,0,0)"></rect>
   <rect x="25" y="40" width="1" height="1" fill="rgb(0,0,0)"></rect>
   <rect x="26" y="40" width="1" height="1" fill="rgb(0,0,0)"></rect>
   <rect x="27" y="40" width="1" height="1" fill="rgb(0,0,0)"></rect>
   <rect x="28" y="40" width="1" height="1" fill="rgb(0,0,0)"></rect>
   <rect x="29" y="40" width="1" height="1" fill="rgb(0,0,0)"></rect>
   <rect x="30" y="40" width="1" height="1" fill="rgb(0,0,0)"></rect>
   <rect x="31" y="40" width="1" height="1" fill="rgb(0,0,0)"></rect>
   <rect x="32" y="40" width="1" height="1" fill="rgb(0,0,0)"></rect>
   <rect x="33" y="40" width="1" height="1" fill="rgb(0,0,0)"></rect>
   <rect x="34" y="40" width="1" height="1" fill="rgb(0,0,0)"></rect>
   <rect x="35" y="40" width="1" height="1" fill="rgb(0,0,0)"></rect>
   <rect x="36" y="40" width="1" height="1" fill="rgb(0,0,0)"></rect>
   <rect x="37" y="40" width="1" height="1" fill="rgb(0,0,0)"></rect>
   <rect x="38" y="40" width="1" height="1" fill="rgb(0,0,0)"></rect>
   <rect x="39" y="40" width="1" height="1" fill="rgb(0,0,0)"></rect>
   <rect x="40" y="40" width="1" height="1" fill="rgb(0,0,0)"></rect>
   <rect x="41" y="40" width="1" height="1" fill="rgb(0,0,0)"></rect>
   <rect x="42" y="40" width="1" height="1" fill="rgb(0,0,0)"></rect>
   <rect x="43" y="40" width="1" height="1" fill="rgb(0,0,0)"></rect>
   <rect x="44" y="40" width="1" height="1" fill="rgb(0,0,0)"></rect>
   <rect x="45" y="40" width="1" height="1" fill="rgb(0,0,0)"></rect>
   <rect x="46" y="40" width="1" height="1" fill="rgb(0,0,0)"></rect>
   <rect x="47" y="40" width="1" height="1" fill="rgb(0,0,0)"></rect>
   <rect x="48" y="40" width="1" height="1" fill="rgb(0,0,0)"></rect>
   <rect x="49" y="40" width="1" height="1" fill="rgb(0,0,0)"></rect>
   <rect x="50" y="40" width="1" height="1" fill="rgb(0,0,0)"></rect>
   <rect x="51" y="40" width="1" height="1" fill="rgb(0,0,0)"></rect>
   <rect x="52" y="40" width="1" height="1" fill="rgb(0,0,0)"></rect>
   <rect x="53" y="40" width="1" height="1" fill="rgb(0,0,0)"></rect>
   <rect x="54" y="40" width="1" height="1" fill="rgb(0,0,0)"></rect>
   <rect x="55" y="40" width="1" height="1" fill="rgb(0,0,0)"></rect>
   <rect x="56" y="40" width="1" height="1" fill="rgb(0,0,0)"></rect>
   <rect x="57" y="40" width="1" height="1" fill="rgb(0,0,0)"></rect>
   <rect x="24" y="41" width="1" height="1" fill="rgb(0,0,0)"></rect>
   <rect x="25" y="41" width="1" height="1" fill="rgb(0,0,0)"></rect>
   <rect x="26" y="41" width="1" height="1" fill="rgb(0,0,0)"></rect>
   <rect x="27" y="41" width="1" height="1" fill="rgb(0,0,0)"></rect>
   <rect x="28" y="41" width="1" height="1" fill="rgb(0,0,0)"></rect>
   <rect x="29" y="41" width="1" height="1" fill="rgb(0,0,0)"></rect>
   <rect x="30" y="41" width="1" height="1" fill="rgb(0,0,0)"></rect>
   <rect x="31" y="41" width="1" height="1" fill="rgb(0,0,0)"></rect>
   <rect x="32" y="41" width="1" height="1" fill="rgb(0,0,0)"></rect>
   <rect x="33" y="41" width="1" height="1" fill="rgb(0,0,0)"></rect>
   <rect x="34" y="41" width="1" height="1" fill="rgb(0,0,0)"></rect>
   <rect x="35" y="41" width="1" height="1" fill="rgb(0,0,0)"></rect>
   <rect x="36" y="41" width="1" height="1" fill="rgb(0,0,0)"></rect>
   <rect x="37" y="41" width="1" height="1" fill="rgb(0,0,0)"></rect>
   <rect x="38" y="41" width="1" height="1" fill="rgb(0,0,0)"></rect>
   <rect x="39" y="41" width="1" height="1" fill="rgb(0,0,0)"></rect>
   <rect x="40" y="41" width="1" height="1" fill="rgb(0,0,0)"></rect>
   <rect x="41" y="41" width="1" height="1" fill="rgb(0,0,0)"></rect>
   <rect x="42" y="41" width="1" height="1" fill="rgb(0,0,0)"></rect>
   <rect x="43" y="41" width="1" height="1" fill="rgb(0,0,0)"></rect>
   <rect x="44" y="41" width="1" height="1" fill="rgb(0,0,0)"></rect>
   <rect x="45" y="41" width="1" height="1" fill="rgb(0,0,0)"></rect>
   <rect x="46" y="41" width="1" height="1" fill="rgb(0,0,0)"></rect>
   <rect x="47" y="41" width="1" height="1" fill="rgb(0,0,0)"></rect>
   <rect x="48" y="41" width="1" height="1" fill="rgb(0,0,0)"></rect>
   <rect x="49" y="41" width="1" height="1" fill="rgb(0,0,0)"></rect>
   <rect x="50" y="41" width="1" height="1" fill="rgb(0,0,0)"></rect>
   <rect x="51" y="41" width="1" height="1" fill="rgb(0,0,0)"></rect>
   <rect x="52" y="41" width="1" height="1" fill="rgb(0,0,0)"></rect>
   <rect x="53" y="41" width="1" height="1" fill="rgb(0,0,0)"></rect>
   <rect x="54" y="41" width="1" height="1" fill="rgb(0,0,0)"></rect>
   <rect x="55" y="41" width="1" height="1" fill="rgb(0,0,0)"></rect>
   <rect x="56" y="41" width="1" height="1" fill="rgb(0,0,0)"></rect>
   <rect x="57" y="41" width="1" height="1" fill="rgb(0,0,0)"></rect>
</svg>